<mxfile host="app.diagrams.net" modified="2020-09-20T18:19:54.848Z" agent="5.0 (Windows NT 10.0; Win64; x64) AppleWebKit/537.36 (KHTML, like Gecko) Chrome/85.0.4183.102 Safari/537.36 Edg/85.0.564.51" etag="4_NEiasxruW1Dfhfnv0r" version="13.7.3" type="github">
  <diagram id="C5RBs43oDa-KdzZeNtuy" name="Page-1">
    <mxGraphModel dx="603" dy="412" grid="1" gridSize="10" guides="1" tooltips="1" connect="1" arrows="1" fold="1" page="1" pageScale="1" pageWidth="827" pageHeight="1169" math="0" shadow="0">
      <root>
        <mxCell id="WIyWlLk6GJQsqaUBKTNV-0" />
        <mxCell id="WIyWlLk6GJQsqaUBKTNV-1" parent="WIyWlLk6GJQsqaUBKTNV-0" />
        <mxCell id="DPBgQk8vMNFgbJzLPaSt-11" style="edgeStyle=none;rounded=0;orthogonalLoop=1;jettySize=auto;html=1;entryX=0.02;entryY=0.725;entryDx=0;entryDy=0;entryPerimeter=0;" edge="1" parent="WIyWlLk6GJQsqaUBKTNV-1" source="DPBgQk8vMNFgbJzLPaSt-0" target="DPBgQk8vMNFgbJzLPaSt-2">
          <mxGeometry relative="1" as="geometry" />
        </mxCell>
        <mxCell id="DPBgQk8vMNFgbJzLPaSt-12" style="edgeStyle=none;rounded=0;orthogonalLoop=1;jettySize=auto;html=1;entryX=0;entryY=0.5;entryDx=0;entryDy=0;" edge="1" parent="WIyWlLk6GJQsqaUBKTNV-1" source="DPBgQk8vMNFgbJzLPaSt-0" target="DPBgQk8vMNFgbJzLPaSt-1">
          <mxGeometry relative="1" as="geometry" />
        </mxCell>
        <mxCell id="DPBgQk8vMNFgbJzLPaSt-13" style="edgeStyle=none;rounded=0;orthogonalLoop=1;jettySize=auto;html=1;entryX=0;entryY=0.5;entryDx=0;entryDy=0;" edge="1" parent="WIyWlLk6GJQsqaUBKTNV-1" source="DPBgQk8vMNFgbJzLPaSt-0" target="DPBgQk8vMNFgbJzLPaSt-3">
          <mxGeometry relative="1" as="geometry" />
        </mxCell>
        <mxCell id="DPBgQk8vMNFgbJzLPaSt-14" style="edgeStyle=none;rounded=0;orthogonalLoop=1;jettySize=auto;html=1;entryX=-0.01;entryY=0.34;entryDx=0;entryDy=0;entryPerimeter=0;" edge="1" parent="WIyWlLk6GJQsqaUBKTNV-1" source="DPBgQk8vMNFgbJzLPaSt-0" target="DPBgQk8vMNFgbJzLPaSt-4">
          <mxGeometry relative="1" as="geometry" />
        </mxCell>
        <mxCell id="DPBgQk8vMNFgbJzLPaSt-15" style="edgeStyle=none;rounded=0;orthogonalLoop=1;jettySize=auto;html=1;entryX=0;entryY=0.5;entryDx=0;entryDy=0;" edge="1" parent="WIyWlLk6GJQsqaUBKTNV-1" source="DPBgQk8vMNFgbJzLPaSt-0" target="DPBgQk8vMNFgbJzLPaSt-5">
          <mxGeometry relative="1" as="geometry" />
        </mxCell>
        <mxCell id="DPBgQk8vMNFgbJzLPaSt-16" style="edgeStyle=none;rounded=0;orthogonalLoop=1;jettySize=auto;html=1;entryX=0.029;entryY=0.35;entryDx=0;entryDy=0;entryPerimeter=0;" edge="1" parent="WIyWlLk6GJQsqaUBKTNV-1" source="DPBgQk8vMNFgbJzLPaSt-0" target="DPBgQk8vMNFgbJzLPaSt-6">
          <mxGeometry relative="1" as="geometry" />
        </mxCell>
        <mxCell id="DPBgQk8vMNFgbJzLPaSt-0" value="Patient" style="shape=umlActor;verticalLabelPosition=bottom;verticalAlign=top;html=1;" vertex="1" parent="WIyWlLk6GJQsqaUBKTNV-1">
          <mxGeometry x="50" y="140" width="30" height="60" as="geometry" />
        </mxCell>
        <mxCell id="DPBgQk8vMNFgbJzLPaSt-1" value="Login" style="ellipse;whiteSpace=wrap;html=1;" vertex="1" parent="WIyWlLk6GJQsqaUBKTNV-1">
          <mxGeometry x="170" y="130" width="100" height="40" as="geometry" />
        </mxCell>
        <mxCell id="DPBgQk8vMNFgbJzLPaSt-2" value="Homepage" style="ellipse;whiteSpace=wrap;html=1;" vertex="1" parent="WIyWlLk6GJQsqaUBKTNV-1">
          <mxGeometry x="170" y="70" width="100" height="40" as="geometry" />
        </mxCell>
        <mxCell id="DPBgQk8vMNFgbJzLPaSt-3" value="Appointment" style="ellipse;whiteSpace=wrap;html=1;" vertex="1" parent="WIyWlLk6GJQsqaUBKTNV-1">
          <mxGeometry x="170" y="190" width="100" height="40" as="geometry" />
        </mxCell>
        <mxCell id="DPBgQk8vMNFgbJzLPaSt-4" value="Prediction" style="ellipse;whiteSpace=wrap;html=1;" vertex="1" parent="WIyWlLk6GJQsqaUBKTNV-1">
          <mxGeometry x="170" y="250" width="100" height="50" as="geometry" />
        </mxCell>
        <mxCell id="DPBgQk8vMNFgbJzLPaSt-5" value="Diagnosis" style="ellipse;whiteSpace=wrap;html=1;" vertex="1" parent="WIyWlLk6GJQsqaUBKTNV-1">
          <mxGeometry x="170" y="320" width="105" height="40" as="geometry" />
        </mxCell>
        <mxCell id="DPBgQk8vMNFgbJzLPaSt-6" value="Logout" style="ellipse;whiteSpace=wrap;html=1;" vertex="1" parent="WIyWlLk6GJQsqaUBKTNV-1">
          <mxGeometry x="172" y="390" width="103" height="40" as="geometry" />
        </mxCell>
        <mxCell id="DPBgQk8vMNFgbJzLPaSt-8" style="rounded=0;orthogonalLoop=1;jettySize=auto;html=1;entryX=1;entryY=0.5;entryDx=0;entryDy=0;" edge="1" parent="WIyWlLk6GJQsqaUBKTNV-1" source="DPBgQk8vMNFgbJzLPaSt-7" target="DPBgQk8vMNFgbJzLPaSt-3">
          <mxGeometry relative="1" as="geometry" />
        </mxCell>
        <mxCell id="DPBgQk8vMNFgbJzLPaSt-9" style="rounded=0;orthogonalLoop=1;jettySize=auto;html=1;entryX=1;entryY=0.5;entryDx=0;entryDy=0;" edge="1" parent="WIyWlLk6GJQsqaUBKTNV-1" source="DPBgQk8vMNFgbJzLPaSt-7" target="DPBgQk8vMNFgbJzLPaSt-4">
          <mxGeometry relative="1" as="geometry" />
        </mxCell>
        <mxCell id="DPBgQk8vMNFgbJzLPaSt-10" style="rounded=0;orthogonalLoop=1;jettySize=auto;html=1;entryX=1;entryY=0.5;entryDx=0;entryDy=0;" edge="1" parent="WIyWlLk6GJQsqaUBKTNV-1" source="DPBgQk8vMNFgbJzLPaSt-7" target="DPBgQk8vMNFgbJzLPaSt-5">
          <mxGeometry relative="1" as="geometry" />
        </mxCell>
        <mxCell id="DPBgQk8vMNFgbJzLPaSt-7" value="Doctor" style="shape=umlActor;verticalLabelPosition=bottom;verticalAlign=top;html=1;" vertex="1" parent="WIyWlLk6GJQsqaUBKTNV-1">
          <mxGeometry x="384" y="260" width="30" height="60" as="geometry" />
        </mxCell>
        <mxCell id="DPBgQk8vMNFgbJzLPaSt-18" style="edgeStyle=none;rounded=0;orthogonalLoop=1;jettySize=auto;html=1;" edge="1" parent="WIyWlLk6GJQsqaUBKTNV-1" source="DPBgQk8vMNFgbJzLPaSt-17" target="DPBgQk8vMNFgbJzLPaSt-1">
          <mxGeometry relative="1" as="geometry" />
        </mxCell>
        <mxCell id="DPBgQk8vMNFgbJzLPaSt-19" style="edgeStyle=none;rounded=0;orthogonalLoop=1;jettySize=auto;html=1;entryX=1;entryY=0.5;entryDx=0;entryDy=0;" edge="1" parent="WIyWlLk6GJQsqaUBKTNV-1" source="DPBgQk8vMNFgbJzLPaSt-17" target="DPBgQk8vMNFgbJzLPaSt-6">
          <mxGeometry relative="1" as="geometry" />
        </mxCell>
        <mxCell id="DPBgQk8vMNFgbJzLPaSt-17" value="Adminstrator" style="shape=umlActor;verticalLabelPosition=bottom;verticalAlign=top;html=1;" vertex="1" parent="WIyWlLk6GJQsqaUBKTNV-1">
          <mxGeometry x="384" y="120" width="30" height="60" as="geometry" />
        </mxCell>
      </root>
    </mxGraphModel>
  </diagram>
</mxfile>
